<?xml version="1.0" standalone="no"?>
<!DOCTYPE svg PUBLIC "-//W3C//DTD SVG 20010904//EN"
 "http://www.w3.org/TR/2001/REC-SVG-20010904/DTD/svg10.dtd">
<svg version="1.0" xmlns="http://www.w3.org/2000/svg"
 width="500.000000pt" height="500.000000pt" viewBox="0 0 500.000000 500.000000"
 preserveAspectRatio="xMidYMid meet">

<g transform="translate(0.000000,500.000000) scale(0.100000,-0.100000)"
fill="#000000" stroke="none">
<path d="M3373 2649 c-40 -12 -73 -53 -73 -92 0 -31 25 -60 124 -140 38 -32
46 -44 46 -72 0 -38 -20 -55 -67 -55 -48 0 -77 38 -96 125 -3 11 -5 -11 -6
-50 -1 -79 -13 -71 112 -81 106 -9 157 22 157 94 0 48 -12 64 -90 122 -75 54
-97 88 -80 121 30 55 110 23 138 -56 10 -28 10 -26 11 24 1 30 -2 52 -5 48 -3
-3 -24 1 -46 9 -45 16 -78 17 -125 3z"/>
<path d="M4065 2648 c-46 -16 -91 -53 -109 -91 -22 -49 -21 -152 3 -197 22
-43 84 -80 131 -80 29 1 32 2 17 11 -37 22 -52 69 -52 169 0 134 29 183 106
183 49 0 83 -29 97 -82 10 -35 10 -34 11 24 1 41 -2 56 -10 48 -7 -7 -21 -5
-47 8 -40 21 -100 23 -147 7z"/>
<path d="M288 2638 c17 -17 17 -329 0 -346 -9 -9 7 -12 73 -12 76 1 82 2 65
15 -15 11 -19 27 -19 67 1 29 0 80 0 113 -3 144 -2 156 13 165 10 7 -11 10
-64 10 -62 0 -77 -3 -68 -12z"/>
<path d="M452 2643 c44 -12 51 -150 8 -185 l-22 -18 32 0 c35 0 64 13 98 43
29 27 31 98 3 126 -21 21 -82 42 -116 40 -15 -1 -16 -2 -3 -6z"/>
<path d="M699 2636 c8 -10 11 -67 10 -183 l-1 -168 67 -3 67 -3 -16 23 c-18
25 -22 118 -6 148 7 13 7 21 0 25 -17 11 -12 141 6 159 14 15 8 16 -62 16 -64
0 -75 -2 -65 -14z"/>
<path d="M861 2644 c51 -16 50 -158 0 -171 -19 -5 -19 -5 -1 -23 10 -10 21
-40 25 -67 10 -80 23 -98 79 -101 67 -4 82 2 58 26 -11 11 -22 37 -25 60 -7
41 -44 82 -73 82 -8 0 -14 5 -14 10 0 6 6 10 14 10 20 0 66 40 76 66 21 55
-24 101 -106 109 -27 2 -42 2 -33 -1z"/>
<path d="M1134 2634 c13 -13 16 -42 16 -165 0 -136 -2 -151 -20 -169 l-20 -20
86 0 c78 0 84 1 70 16 -13 13 -16 43 -16 173 0 109 4 161 12 169 9 9 -5 12
-66 12 -70 0 -76 -1 -62 -16z"/>
<path d="M1393 2639 c15 -9 17 -28 17 -166 0 -132 -3 -159 -17 -175 -15 -17
-14 -18 26 -18 l42 0 -21 28 c-18 25 -20 40 -18 126 l3 99 56 -59 c30 -33 84
-89 119 -126 35 -38 69 -68 77 -68 10 0 13 23 12 103 -1 56 -4 89 -8 74 -6
-28 -8 -27 -109 82 l-104 111 -46 0 c-37 -1 -43 -3 -29 -11z"/>
<path d="M1664 2634 c10 -9 16 -34 17 -62 l1 -47 10 50 c5 27 14 55 20 62 8
10 2 13 -26 13 -34 0 -36 -1 -22 -16z"/>
<path d="M1810 2585 c0 -74 11 -84 29 -26 6 22 23 49 38 60 51 41 53 35 53
-143 0 -159 -1 -165 -22 -180 -21 -15 -17 -16 70 -16 l92 0 -20 20 c-18 18
-20 33 -20 175 0 125 3 157 14 161 25 10 53 -14 80 -68 l26 -52 0 67 0 67
-170 0 -170 0 0 -65z"/>
<path d="M2435 2634 c14 -14 16 -39 13 -168 -2 -83 -7 -159 -12 -168 -7 -17 0
-18 90 -17 55 1 86 4 69 6 -16 3 -33 10 -37 16 -13 21 -9 322 4 335 9 9 -5 12
-66 12 -71 0 -76 -1 -61 -16z"/>
<path d="M2627 2640 c45 -18 63 -66 63 -168 0 -95 -13 -140 -49 -170 -14 -12
-11 -13 19 -7 46 7 100 52 124 100 24 52 18 131 -15 179 -25 37 -99 77 -141
75 l-23 0 22 -9z"/>
<path d="M2919 2636 c9 -11 11 -63 9 -180 -3 -179 -4 -176 52 -176 53 0 55 3
52 95 l-3 85 25 0 c19 0 32 -9 46 -32 l20 -33 0 75 c-1 72 -1 74 -16 48 -17
-33 -52 -54 -66 -40 -5 5 -8 42 -6 83 l3 74 33 3 c45 5 77 -19 95 -70 l15 -43
1 63 1 62 -136 0 c-117 0 -135 -2 -125 -14z"/>
<path d="M3689 2636 c8 -10 11 -67 10 -183 l-1 -168 62 -3 c52 -3 62 0 57 12
-12 32 -19 282 -9 319 l10 37 -70 0 c-59 0 -69 -2 -59 -14z"/>
<path d="M4408 2638 c15 -15 17 -324 2 -333 -16 -10 -1 -25 26 -25 28 0 29 7
9 34 -20 27 -22 221 -2 209 7 -4 60 -60 118 -123 58 -63 113 -116 122 -118 15
-3 17 13 17 160 0 132 3 168 16 186 15 22 15 22 -28 22 -41 0 -42 0 -20 -16
20 -14 22 -23 22 -112 l-1 -97 -107 113 c-101 107 -109 113 -146 112 -31 0
-37 -3 -28 -12z"/>
<path d="M4140 2433 c8 -3 21 -12 28 -21 15 -20 16 -104 0 -120 -16 -16 -8
-15 37 4 21 8 46 13 57 11 16 -5 18 1 18 48 0 29 3 60 6 69 5 14 -5 16 -77 15
-46 0 -77 -3 -69 -6z"/>
<path d="M3177 2383 c-5 -18 -21 -46 -36 -62 l-27 -29 30 -6 c16 -4 34 -2 38
2 5 5 8 36 6 68 -3 53 -4 56 -11 27z"/>
</g>
</svg>
